<?xml version="1.0" encoding="utf-8"?>
<!-- Generator: Adobe Illustrator 17.1.0, SVG Export Plug-In . SVG Version: 6.00 Build 0)  -->
<!DOCTYPE svg PUBLIC "-//W3C//DTD SVG 1.1//EN" "http://www.w3.org/Graphics/SVG/1.1/DTD/svg11.dtd">
<svg version="1.1" id="Layer_1" xmlns="http://www.w3.org/2000/svg" xmlns:xlink="http://www.w3.org/1999/xlink" x="0px" y="0px"
	 width="232.4px" height="248.3px" viewBox="0 0 232.4 248.3" enable-background="new 0 0 232.4 248.3" xml:space="preserve">
<g>
	<path fill="#000000" d="M134.7,28.6L201.1,81c0.7,0.6,1.3,0.3,1.3-0.6V1.1c0-0.9-0.7-1.4-1.5-1L135,26.9
		C134.1,27.3,134,28,134.7,28.6z"/>
	<path fill="#000000" d="M230.9,106.6l-27,12.5c-0.8,0.4-2.1,0.2-2.8-0.3L99.7,42.1c-0.7-0.6-2-0.7-2.8-0.3L1.6,83.7
		C0.7,84,0,85.1,0,86l0,84.9h7.9v-15.7h21.8v15.7h14.4v17.5H29.7v21c0,4.4,1.9,6.2,6,6.2c2.9,0,5.6-0.8,8.2-2.1v17.1
		c-3.9,2.2-9.1,3.6-15.1,3.6c-13.1,0-20.8-5.7-20.8-20.5v-25.2H0l0,58.3c0,0.9,0.7,1.7,1.7,1.7H55c-1.7-0.7-3.4-1.5-5-2.4l6.8-15.2
		c3.4,2.1,7.1,3.3,9.5,3.3c2.2,0,3.7-0.6,5-2.5L47,170.6h22.8L82.1,208l11.7-37.3h22.3l-22.7,60.5c-3.2,8.7-6.6,14.2-11.5,17.2
		h148.8c0.9,0,1.7-0.7,1.7-1.7V107.5C232.4,106.6,231.8,106.2,230.9,106.6z"/>
</g>
</svg>
